<?xml version="1.0" encoding="UTF-8"?>
<svg width="512" height="512" viewBox="0 0 512 512" fill="none" xmlns="http://www.w3.org/2000/svg">
  <!-- Gradient Definitions -->
  <defs>
    <linearGradient id="primaryGradient" x1="0%" y1="0%" x2="100%" y2="100%">
      <stop offset="0%" stop-color="#007AFF" />
      <stop offset="100%" stop-color="#5856D6" />
    </linearGradient>
    
    <linearGradient id="secondaryGradient" x1="0%" y1="0%" x2="100%" y2="100%">
      <stop offset="0%" stop-color="#FF2D55" />
      <stop offset="100%" stop-color="#FF9500" />
    </linearGradient>
    
    <linearGradient id="tertiaryGradient" x1="100%" y1="0%" x2="0%" y2="100%">
      <stop offset="0%" stop-color="#00C7BE" />
      <stop offset="100%" stop-color="#34C759" />
    </linearGradient>
    
    <filter id="neomorphism" x="-5%" y="-5%" width="110%" height="110%">
      <feGaussianBlur in="SourceAlpha" stdDeviation="6" result="blur" />
      <feOffset in="blur" dx="0" dy="0" result="offsetBlur" />
      <feSpecularLighting in="blur" surfaceScale="5" specularConstant="0.75" specularExponent="20" lighting-color="#FFFFFF" result="specOut">
        <fePointLight x="250" y="250" z="300" />
      </feSpecularLighting>
      <feComposite in="specOut" in2="SourceAlpha" operator="in" result="specOut" />
      <feComposite in="SourceGraphic" in2="specOut" operator="arithmetic" k1="0" k2="1" k3="1" k4="0" result="litPaint" />
      <feMerge>
        <feMergeNode in="offsetBlur" />
        <feMergeNode in="litPaint" />
      </feMerge>
    </filter>
    
    <filter id="dropShadow" x="-10%" y="-10%" width="120%" height="120%">
      <feDropShadow dx="0" dy="2" stdDeviation="4" flood-opacity="0.15" />
    </filter>
    
    <clipPath id="roundedRect">
      <rect x="116" y="116" width="280" height="280" rx="70" />
    </clipPath>
  </defs>
  
  <!-- Main Background -->
  <rect x="116" y="116" width="280" height="280" rx="70" fill="white" filter="url(#neomorphism)" />
  
  <!-- Glossy Overlay -->
  <rect x="116" y="116" width="280" height="280" rx="70" fill="url(#primaryGradient)" opacity="0.95" />
  
  <!-- Camera/Lens Icon Element -->
  <circle cx="256" cy="216" r="40" fill="white" opacity="0.15" />
  <circle cx="256" cy="216" r="35" fill="white" opacity="0.1" />
  <circle cx="256" cy="216" r="25" fill="white" opacity="0.2" />
  
  <!-- Caption Elements -->
  <rect x="156" y="296" width="200" height="8" rx="4" fill="white" opacity="0.9" />
  <rect x="176" y="316" width="160" height="8" rx="4" fill="white" opacity="0.7" />
  <rect x="196" y="336" width="120" height="8" rx="4" fill="white" opacity="0.5" />
  
  <!-- Dynamic Overlapping Shapes -->
  <g clip-path="url(#roundedRect)">
    <!-- Visual elements representing legends/detection -->
    <circle cx="356" cy="166" r="70" fill="url(#secondaryGradient)" opacity="0.8" />
    <circle cx="156" cy="346" r="70" fill="url(#tertiaryGradient)" opacity="0.8" />
    
    <!-- "R" Letter Mark -->
    <path d="M256 156 
             C256 156, 276 156, 286 156 
             C296 156, 306 166, 306 176
             C306 186, 296 196, 286 196
             L256 196 
             L256 156 Z" 
          fill="white" opacity="0.95" />
    <path d="M256 196 
             L286 196
             L306 246
             L276 246
             L256 196 Z" 
          fill="white" opacity="0.85" />
    <rect x="246" y="156" width="20" height="90" rx="5" fill="white" opacity="0.95" />
  </g>
  
  <!-- Subtle Highlight -->
  <rect x="116" y="116" width="280" height="140" rx="70" fill="white" opacity="0.05" />
</svg> 